<svg id="Layer_1" data-name="Layer 1" xmlns="http://www.w3.org/2000/svg" viewBox="0 0 1920 1080"><defs><style>.cls-1{fill:#f4c9e5;}.cls-2{fill:#c9ecf2;}.cls-3{fill:#7a7774;}.cls-4{fill:#d7c9f2;}.cls-5{fill:#fff;}</style></defs><ellipse class="cls-1" cx="1647.69" cy="266.07" rx="273.3" ry="255.65" transform="translate(-20.1 330.5) rotate(-11.39)"/><ellipse class="cls-2" cx="1639.73" cy="168.45" rx="153.73" ry="143.8" transform="translate(-0.99 327.01) rotate(-11.39)"/><ellipse class="cls-3" cx="1677.46" cy="110.15" rx="71.94" ry="67.3" transform="translate(400.76 1203.78) rotate(-44.34)"/><ellipse class="cls-3" cx="1495.26" cy="236.19" rx="71.94" ry="67.3" transform="translate(260.78 1112.34) rotate(-44.34)"/><ellipse class="cls-3" cx="1615.38" cy="421.46" rx="71.94" ry="67.3" transform="translate(165.49 1249.06) rotate(-44.34)"/><ellipse class="cls-3" cx="1800.65" cy="301.35" rx="71.94" ry="67.3" transform="translate(302.21 1344.34) rotate(-44.34)"/><ellipse class="cls-4" cx="1648.35" cy="811.11" rx="273.3" ry="255.65" transform="translate(-185.46 701.2) rotate(-22.77)"/><ellipse class="cls-5" cx="1638.91" cy="829.86" rx="106.2" ry="239.43" transform="translate(504.8 2275.01) rotate(-78.73)"/><ellipse class="cls-3" cx="1538.93" cy="924.84" rx="71.94" ry="67.3" transform="translate(-152.29 321.99) rotate(-11.39)"/><ellipse class="cls-3" cx="1648.81" cy="809.18" rx="71.94" ry="67.3" transform="translate(-127.29 341.41) rotate(-11.39)"/><ellipse class="cls-3" cx="1760.37" cy="697.39" rx="71.94" ry="67.3" transform="translate(-103.03 361.23) rotate(-11.39)"/></svg>